<svg width="24" height="24" viewBox="0 0 24 24" fill="none" xmlns="http://www.w3.org/2000/svg">
<g clip-path="url(#clip0_2874_4941)">
<rect width="24" height="24" fill="#EFE3E3"/>
<path d="M18.6667 1.33325H5.33333C4.97971 1.33325 4.64057 1.47373 4.39052 1.72378C4.14048 1.97382 4 2.31296 4 2.66659V21.3333C4 21.6869 4.14048 22.026 4.39052 22.2761C4.64057 22.5261 4.97971 22.6666 5.33333 22.6666H18.6667C19.0203 22.6666 19.3594 22.5261 19.6095 22.2761C19.8595 22.026 20 21.6869 20 21.3333V2.66659C20 2.31296 19.8595 1.97382 19.6095 1.72378C19.3594 1.47373 19.0203 1.33325 18.6667 1.33325ZM8.66667 17.3333H7.33333V15.9999H8.66667V17.3333ZM8.66667 14.6666H7.33333V13.3333H8.66667V14.6666ZM8.66667 11.9999H7.33333V10.6666H8.66667V11.9999ZM8.66667 9.33325H7.33333V7.99992H8.66667V9.33325ZM8.66667 6.66659H7.33333V5.33325H8.66667V6.66659ZM16.6667 17.3333H10V15.9999H16.6667V17.3333ZM16.6667 14.6666H10V13.3333H16.6667V14.6666ZM16.6667 11.9999H10V10.6666H16.6667V11.9999ZM16.6667 9.33325H10V7.99992H16.6667V9.33325ZM16.6667 6.66659H10V5.33325H16.6667V6.66659Z" fill="black"/>
</g>
<defs>
<clipPath id="clip0_2874_4941">
<rect width="24" height="24" fill="white"/>
</clipPath>
</defs>
</svg>
