<svg width="24" height="24" viewBox="0 0 24 24" fill="none" xmlns="http://www.w3.org/2000/svg">
<g clip-path="url(#clip0_2874_4952)">
<rect width="24" height="24" fill="#EFE3E3"/>
<path d="M13.3312 2.4e-05L6.04433 0.030864C2.96062 0.451248 0.318549 2.34523 0.0851936 5.5764C0.0114207 5.87302 0.0477986 6.17417 0.0373599 6.44974C0.00374311 7.86173 0.0118082 9.38083 0.0335817 10.8346C0.0393944 13.1286 -0.0289776 14.977 0.0146177 16.6825C0.0425429 21.6941 3.02824 24.0362 8.45001 23.9386C9.79323 23.9145 11.3291 23.9058 13.0905 23.9514C14.8424 23.9631 16.1929 24.0775 17.3963 23.9078C22.7411 23.1541 23.7829 19.6019 23.9999 16.7261V13.4328C23.844 10.0874 21.3961 9.16632 19.3032 9.09838C19.5282 8.2621 19.5823 7.12512 19.3852 5.59368C19.1316 2.61792 17.0003 0.291168 13.3312 0V2.4e-05ZM7.23768 4.49393H13.1657C16.4432 4.9265 16.2889 8.42834 13.1657 8.93066H7.23768C3.96014 8.49809 4.11449 4.99625 7.23768 4.49393ZM5.89175 14.1851L16.7822 14.2219C20.0754 14.6428 20.0847 18.6156 16.8968 19.1017L6.00638 19.0641C2.6291 18.6527 2.6765 14.6754 5.89175 14.1851V14.1851Z" fill="black"/>
</g>
<defs>
<clipPath id="clip0_2874_4952">
<rect width="24" height="24" fill="white"/>
</clipPath>
</defs>
</svg>
