<svg width="25" height="25" viewBox="0 0 25 25" fill="none" xmlns="http://www.w3.org/2000/svg">
<path d="M17.1875 12.5C17.1875 12.7072 17.1052 12.9059 16.9587 13.0524C16.8122 13.1989 16.6135 13.2812 16.4062 13.2812L9.375 13.2812L9.375 18.3594C9.375 19.9219 11.0249 21.0938 12.5 21.0938H19.9219C20.6468 21.093 21.3419 20.8046 21.8545 20.292C22.3671 19.7794 22.6555 19.0843 22.6562 18.3594V6.64062C22.6555 5.91566 22.3671 5.22061 21.8545 4.70799C21.3419 4.19536 20.6468 3.90703 19.9219 3.90625H12.1094C11.3844 3.90703 10.6894 4.19536 10.1767 4.70799C9.66411 5.22061 9.37578 5.91566 9.375 6.64062V11.7187L16.4062 11.7188C16.6135 11.7188 16.8122 11.8011 16.9587 11.9476C17.1052 12.0941 17.1875 12.2928 17.1875 12.5ZM2.57275 13.0522L6.479 16.9585C6.62671 17.0988 6.82339 17.1759 7.02711 17.1733C7.23083 17.1707 7.42547 17.0886 7.56953 16.9445C7.7136 16.8005 7.79568 16.6058 7.79829 16.4021C7.8009 16.1984 7.72382 16.0017 7.5835 15.854L5.01123 13.2812H9.375V11.7187H5.01123L7.5835 9.146C7.6591 9.07417 7.71955 8.98794 7.7613 8.89238C7.80305 8.79683 7.82524 8.69388 7.82658 8.58961C7.82791 8.48534 7.80836 8.38186 7.76907 8.28526C7.72978 8.18867 7.67156 8.10092 7.59782 8.02718C7.52408 7.95344 7.43633 7.89522 7.33974 7.85593C7.24314 7.81664 7.13966 7.79709 7.03539 7.79842C6.93112 7.79976 6.82817 7.82195 6.73262 7.8637C6.63706 7.90545 6.55083 7.9659 6.479 8.0415L2.57275 11.9478C2.42635 12.0943 2.34411 12.2929 2.34411 12.5C2.34411 12.7071 2.42635 12.9057 2.57275 13.0522Z" fill="black"/>
</svg>
