<svg width="25" height="25" viewBox="0 0 25 25" fill="none" xmlns="http://www.w3.org/2000/svg">
<rect width="24" height="24" transform="translate(0.0507812 0.34668)" fill="#EFE3E3"/>
<path d="M13.8707 22.3467H10.2307C10.0026 22.3467 9.78137 22.2688 9.60367 22.1258C9.42597 21.9829 9.30247 21.7835 9.25367 21.5607L8.84667 19.6767C8.30372 19.4388 7.7889 19.1413 7.31167 18.7897L5.47467 19.3747C5.25723 19.444 5.02262 19.4369 4.80979 19.3545C4.59696 19.2721 4.41872 19.1194 4.30467 18.9217L2.48067 15.7707C2.36781 15.5728 2.32545 15.3425 2.36051 15.1174C2.39557 14.8924 2.50597 14.6858 2.67367 14.5317L4.09867 13.2317C4.03386 12.6428 4.03386 12.0486 4.09867 11.4597L2.67367 10.1627C2.50574 10.0085 2.39518 9.80175 2.36011 9.57646C2.32505 9.35117 2.36755 9.12065 2.48067 8.92268L4.30067 5.76968C4.41472 5.572 4.59296 5.41927 4.80579 5.33687C5.01862 5.25446 5.25323 5.24734 5.47067 5.31668L7.30767 5.90168C7.55167 5.72168 7.80567 5.55368 8.06767 5.40168C8.32067 5.25968 8.58067 5.13068 8.84667 5.01568L9.25467 3.13368C9.30324 2.91088 9.4265 2.71137 9.60401 2.56823C9.78153 2.42509 10.0026 2.34692 10.2307 2.34668H13.8707C14.0987 2.34692 14.3198 2.42509 14.4973 2.56823C14.6748 2.71137 14.7981 2.91088 14.8467 3.13368L15.2587 5.01668C15.8009 5.25595 16.3156 5.55336 16.7937 5.90368L18.6317 5.31868C18.849 5.2496 19.0834 5.25685 19.296 5.33924C19.5086 5.42163 19.6867 5.57421 19.8007 5.77168L21.6207 8.92468C21.8527 9.33168 21.7727 9.84668 21.4277 10.1637L20.0027 11.4637C20.0675 12.0526 20.0675 12.6468 20.0027 13.2357L21.4277 14.5357C21.7727 14.8537 21.8527 15.3677 21.6207 15.7747L19.8007 18.9277C19.6866 19.1254 19.5084 19.2781 19.2955 19.3605C19.0827 19.4429 18.8481 19.45 18.6307 19.3807L16.7937 18.7957C16.3168 19.147 15.8023 19.4442 15.2597 19.6817L14.8467 21.5607C14.7979 21.7833 14.6746 21.9826 14.4971 22.1255C14.3196 22.2685 14.0986 22.3465 13.8707 22.3467ZM12.0467 8.34668C10.9858 8.34668 9.96838 8.76811 9.21824 9.51825C8.46809 10.2684 8.04667 11.2858 8.04667 12.3467C8.04667 13.4075 8.46809 14.425 9.21824 15.1751C9.96838 15.9253 10.9858 16.3467 12.0467 16.3467C13.1075 16.3467 14.1249 15.9253 14.8751 15.1751C15.6252 14.425 16.0467 13.4075 16.0467 12.3467C16.0467 11.2858 15.6252 10.2684 14.8751 9.51825C14.1249 8.76811 13.1075 8.34668 12.0467 8.34668Z" fill="black"/>
</svg>
